<?xml version="1.0" encoding="UTF-8" standalone="no"?>
<!-- Created with Inkscape (http://www.inkscape.org/) -->

<svg
   xmlns:dc="http://purl.org/dc/elements/1.1/"
   xmlns:cc="http://creativecommons.org/ns#"
   xmlns:rdf="http://www.w3.org/1999/02/22-rdf-syntax-ns#"
   xmlns:svg="http://www.w3.org/2000/svg"
   xmlns="http://www.w3.org/2000/svg"
   xmlns:sodipodi="http://sodipodi.sourceforge.net/DTD/sodipodi-0.dtd"
   xmlns:inkscape="http://www.inkscape.org/namespaces/inkscape"
   width="210mm"
   height="297mm"
   viewBox="0 0 210 297"
   version="1.1"
   id="svg8"
   inkscape:version="0.92.1 r15371"
   sodipodi:docname="опыты.svg">
  <sodipodi:namedview
     id="base"
     pagecolor="#ffffff"
     bordercolor="#666666"
     borderopacity="1.0"
     inkscape:pageopacity="0.0"
     inkscape:pageshadow="2"
     inkscape:zoom="0.24748737"
     inkscape:cx="-563.94639"
     inkscape:cy="933.71932"
     inkscape:document-units="mm"
     inkscape:current-layer="layer1"
     showgrid="false"
     inkscape:window-width="1920"
     inkscape:window-height="1018"
     inkscape:window-x="-8"
     inkscape:window-y="-8"
     inkscape:window-maximized="1" />
  <defs
     id="defs2" />
  <metadata
     id="metadata5">
    <rdf:RDF>
      <cc:Work
         rdf:about="">
        <dc:format>image/svg+xml</dc:format>
        <dc:type
           rdf:resource="http://purl.org/dc/dcmitype/StillImage" />
        <dc:title></dc:title>
      </cc:Work>
    </rdf:RDF>
  </metadata>
  <g
     id="layer1"
     inkscape:groupmode="layer"
     inkscape:label="Layer 1">
    <path
       id="path4529"
       d="m 133.88989,209.07161 c -0.31827,-0.0875 -0.88922,-0.34257 -1.26877,-0.56678 -0.87947,-0.51953 -2.55893,-1.33239 -3.95266,-1.9131 -1.73317,-0.72214 -4.78957,-2.03166 -5.31677,-2.27798 -0.26584,-0.12421 -0.86398,-0.37826 -1.32919,-0.56457 -0.46522,-0.1863 -1.18707,-0.49246 -1.6041,-0.68034 -0.41704,-0.18789 -0.77874,-0.34161 -0.80379,-0.34161 -0.025,0 -0.49947,-0.21466 -1.05429,-0.47702 -0.92026,-0.43517 -4.70994,-2.03755 -4.99632,-2.11258 -0.0665,-0.0174 -0.27861,-0.0962 -0.47144,-0.17502 -0.19283,-0.0789 -0.41033,-0.11806 -0.48334,-0.0871 -0.073,0.0309 -0.005,0.0948 0.15036,0.14183 0.15571,0.0471 0.6959,0.29542 1.20042,0.55189 0.50453,0.25647 0.99156,0.46632 1.0823,0.46632 0.31016,0 0.86077,0.35953 0.94185,0.61501 0.0513,0.16156 0.12319,0.21296 0.19604,0.14011 0.0633,-0.0633 0.2532,-0.0887 0.42203,-0.0564 0.22487,0.043 0.26361,0.0862 0.14483,0.16146 -0.1331,0.0844 -0.13138,0.1031 0.01,0.10462 0.0945,9.7e-4 0.25758,0.072 0.3625,0.15774 0.10493,0.0857 0.65297,0.33844 1.21787,0.56157 0.56491,0.22313 1.17144,0.50642 1.34785,0.62955 0.17641,0.12312 0.35824,0.22386 0.40408,0.22386 0.0743,0 2.83793,1.31444 2.94256,1.39954 0.0233,0.0189 0.004,0.0959 -0.0422,0.17115 -0.0607,0.0982 -0.14069,0.0883 -0.28398,-0.0351 -0.10971,-0.0945 -0.49854,-0.30957 -0.86406,-0.47786 -0.87541,-0.40303 -4.0999,-1.78273 -4.16644,-1.78273 -0.0286,0 -0.39425,-0.15747 -0.81261,-0.34995 -0.41836,-0.19247 -0.97815,-0.43163 -1.24399,-0.53147 -0.26584,-0.0998 -0.89116,-0.3717 -1.38961,-0.60414 -0.49845,-0.23244 -1.25971,-0.55981 -1.6917,-0.7275 -0.43199,-0.16769 -1.51951,-0.6031 -2.41671,-0.96758 -0.89721,-0.36449 -2.2838,-0.89627 -3.08131,-1.18176 -1.55288,-0.55587 -2.03111,-0.79623 -1.92521,-0.96758 0.0366,-0.0592 0.009,-0.10762 -0.0615,-0.10762 -0.0704,0 -0.12796,0.0587 -0.12796,0.13043 0,0.16721 -0.68311,0.0316 -1.06708,-0.21189 -0.1549,-0.0982 -0.35257,-0.15136 -0.43926,-0.1181 -0.0867,0.0333 -0.25902,-0.005 -0.38295,-0.0851 -0.12394,-0.0801 -0.38847,-0.16257 -0.58784,-0.18331 -0.19938,-0.0207 -0.44836,-0.11426 -0.55328,-0.2078 -0.10492,-0.0935 -0.25812,-0.17008 -0.34044,-0.17008 -0.0982,0 -0.1213,-0.0894 -0.0672,-0.25995 0.0656,-0.20656 0.0425,-0.24459 -0.1124,-0.18516 -0.1072,0.0411 -0.38051,-0.0347 -0.60736,-0.16856 l -0.41245,-0.24335 -0.17411,0.24857 c -0.17361,0.24786 -0.17475,0.24771 -0.401949,-0.0548 -0.268184,-0.35711 -0.805189,-0.42743 -0.702108,-0.0919 0.03573,0.11631 -0.01571,0.076 -0.114324,-0.0897 -0.198649,-0.33364 -0.384417,-0.38428 -3.281213,-0.8946 -2.222125,-0.39147 -3.133713,-0.49727 -3.044791,-0.35339 0.0572,0.0926 -1.259879,0.10024 -2.181352,0.0127 -0.231184,-0.022 -0.179558,-0.21445 0.06042,-0.22528 0.126326,-0.006 0.150651,-0.0341 0.06042,-0.0705 -0.08308,-0.0335 -0.151045,-0.13606 -0.151045,-0.22788 0,-0.22667 -0.311813,-0.37659 -0.996894,-0.47932 -0.619876,-0.0929 -0.691021,-0.0265 -0.362507,0.33862 0.202609,0.22519 0.201344,0.23311 -0.03021,0.18935 -0.132919,-0.0251 -0.350423,-0.2488 -0.483343,-0.49706 -0.166035,-0.31012 -0.32453,-0.45149 -0.50642,-0.45171 -0.145612,-1.8e-4 -0.298355,-0.0547 -0.339429,-0.12116 -0.04107,-0.0665 -0.29249,-0.12084 -0.558701,-0.12084 -0.502471,0 -1.676759,-0.43355 -1.676759,-0.61906 0,-0.16644 0.206098,-0.12426 0.415372,0.085 0.10503,0.10503 0.258448,0.16721 0.34093,0.13819 0.08248,-0.029 0.268099,-0.009 0.412485,0.0441 0.356429,0.13162 0.680895,-0.21487 0.366159,-0.391 -0.113164,-0.0633 -0.205754,-0.18097 -0.205754,-0.26142 0,-0.0805 -0.142896,-0.30038 -0.317546,-0.48874 -0.317197,-0.34208 -0.31781,-0.34219 -0.558424,-0.10158 -0.250494,0.2505 -0.200385,0.54143 0.07505,0.43574 0.08691,-0.0334 0.234526,0.0315 0.328029,0.1442 0.155413,0.18726 0.133889,0.19954 -0.250774,0.14308 -0.231427,-0.034 -0.515364,-0.003 -0.630971,0.0695 -0.332782,0.20783 -0.475446,-0.0306 -0.33109,-0.55347 0.125442,-0.45431 0.595735,-0.84177 1.288724,-1.06173 1.043337,-0.33117 1.304975,-0.47011 1.341885,-0.7126 0.02124,-0.13952 0.09242,-0.25368 0.158176,-0.25368 0.06576,0 0.09063,0.0468 0.05528,0.10402 -0.09787,0.15835 0.895048,-0.0536 1.056634,-0.22551 0.0885,-0.0942 0.09615,-0.16803 0.02049,-0.19759 -0.528686,-0.20651 -0.725616,-0.38286 -0.731295,-0.65488 -0.0092,-0.4408 -0.147314,-0.5969 -0.528133,-0.5969 -0.205115,0 -0.464749,-0.12585 -0.657702,-0.3188 -0.287335,-0.28734 -0.299311,-0.33306 -0.12133,-0.46321 0.181899,-0.133 0.180399,-0.17045 -0.01902,-0.4748 l -0.216494,-0.33041 0.744271,0.0842 c 0.608127,0.0688 0.74427,0.0522 0.74427,-0.0909 0,-0.21767 -0.635793,-0.94364 -0.826419,-0.94364 -0.07715,0 -0.140266,-0.0854 -0.140266,-0.18989 0,-0.17262 0.01726,-0.17262 0.189884,0 0.299705,0.29971 0.524078,0.23523 0.495533,-0.14241 -0.01797,-0.23776 -0.09895,-0.3429 -0.284633,-0.36957 -0.142733,-0.0205 -0.290958,-0.11922 -0.329389,-0.21936 -0.05202,-0.13557 -0.01091,-0.16338 0.160867,-0.10886 0.126908,0.0403 0.265715,0.0166 0.30846,-0.0525 0.04275,-0.0692 0.202336,-0.12575 0.354645,-0.12575 0.424188,0 1.038003,-0.24707 1.038003,-0.41782 0,-0.0839 -0.122346,-0.24474 -0.27188,-0.35748 -0.310482,-0.23407 -0.430799,-1.03723 -0.155382,-1.03723 0.08785,0 0.192769,0.0861 0.233144,0.1913 0.04038,0.10522 0.141351,0.16694 0.224391,0.13716 0.08304,-0.0298 0.246139,-0.005 0.362443,0.0546 0.130374,0.0671 0.211463,0.0641 0.211463,-0.008 0,-0.0641 0.176722,-0.11195 0.392716,-0.10639 0.215994,0.006 0.773348,-0.11259 1.238565,-0.26255 0.465218,-0.14995 1.098529,-0.33509 1.40736,-0.41141 0.30883,-0.0763 0.668004,-0.23523 0.798165,-0.35313 0.130161,-0.11791 0.317373,-0.18341 0.416026,-0.14555 0.09865,0.0379 0.246572,-0.0121 0.328709,-0.11111 0.171604,-0.20677 1.439151,-0.64723 2.064421,-0.71736 0.232608,-0.0261 0.573525,-0.10829 0.757593,-0.18266 0.184068,-0.0744 0.673453,-0.21794 1.087521,-0.31906 0.414069,-0.10111 1.050177,-0.26518 1.413574,-0.36459 0.363399,-0.0994 0.839189,-0.18076 1.057309,-0.18076 0.21813,0 0.39659,-0.0498 0.39659,-0.11068 0,-0.2296 0.96512,-0.87191 1.29628,-0.86269 0.18425,0.005 0.41657,0.011 0.51626,0.0131 0.62491,0.0132 1.20398,-0.10565 1.38192,-0.28359 0.11341,-0.11341 0.28035,-0.20621 0.37096,-0.20621 0.0906,0 0.31783,-0.0629 0.50492,-0.13973 0.18709,-0.0768 0.47213,-0.16156 0.63343,-0.18825 0.16129,-0.0267 0.44157,-0.15412 0.62283,-0.28319 0.18126,-0.12907 0.41052,-0.23468 0.50945,-0.23468 0.0989,0 0.21118,-0.0816 0.24944,-0.18125 0.0382,-0.0997 0.15356,-0.18125 0.25623,-0.18125 0.10268,0 0.2947,-0.0544 0.42672,-0.12084 0.13202,-0.0665 0.34805,-0.17521 0.48006,-0.24167 0.13202,-0.0665 0.3235,-0.12084 0.42552,-0.12084 0.10202,0 0.24742,-0.13594 0.32312,-0.30208 0.0757,-0.16615 0.19051,-0.30209 0.25512,-0.30209 0.0646,0 0.22215,-0.12069 0.35008,-0.2682 0.12793,-0.14751 0.35182,-0.27631 0.49752,-0.28623 0.1457,-0.01 0.42804,-0.0812 0.62742,-0.15832 0.19937,-0.0772 0.43047,-0.16414 0.51355,-0.19331 0.0831,-0.0292 0.15104,-0.10913 0.15104,-0.17767 0,-0.15911 -0.003,-0.1588 -0.55921,0.0566 -0.27415,0.10618 -0.37221,0.11869 -0.23682,0.0302 0.12708,-0.0831 0.33099,-0.24616 0.45313,-0.36246 0.12214,-0.11631 0.26285,-0.19937 0.31269,-0.1846 0.0498,0.0148 0.23733,-0.0712 0.41663,-0.19102 0.19649,-0.13133 0.4845,-0.20239 0.72501,-0.17887 0.29955,0.0293 0.39208,-0.006 0.37117,-0.14127 -0.0317,-0.20525 0.50826,-0.49912 0.74802,-0.40711 0.0873,0.0335 0.27494,-0.10233 0.41701,-0.30184 0.1787,-0.25097 0.3784,-0.37435 0.64808,-0.40039 0.23633,-0.0228 0.37759,-0.098 0.35882,-0.19094 -0.017,-0.0843 0.10532,-0.21539 0.27188,-0.29128 0.364,-0.16585 0.41316,-0.46792 0.0612,-0.37587 -0.4063,0.10625 -0.26892,-0.0712 0.21006,-0.27133 0.24845,-0.10381 0.5713,-0.15873 0.71743,-0.12206 0.15865,0.0398 0.44302,-0.0379 0.70579,-0.19297 0.24204,-0.14281 0.63968,-0.26533 0.88364,-0.27228 0.38143,-0.0109 0.44858,-0.0558 0.47944,-0.32057 0.0247,-0.21241 0.14535,-0.34926 0.38872,-0.44112 0.19405,-0.0733 0.34818,-0.0978 0.34252,-0.0546 -0.0314,0.23934 0.0543,0.2523 0.3832,0.058 0.2007,-0.11856 0.34089,-0.27813 0.31154,-0.35462 -0.093,-0.24227 0.18388,-0.39264 0.59888,-0.3253 0.31799,0.0516 0.45879,0.005 0.68055,-0.22713 0.15378,-0.16071 0.51744,-0.36851 0.80814,-0.46178 0.2907,-0.0933 0.67134,-0.30925 0.84585,-0.47997 0.17452,-0.17071 0.55215,-0.41442 0.83917,-0.54157 0.36741,-0.16275 0.50657,-0.28966 0.47019,-0.42879 -0.0335,-0.12795 0.0667,-0.25001 0.28397,-0.3462 0.30256,-0.13392 0.43389,-0.34397 0.72788,-1.1641 0.0678,-0.18906 0.0892,-0.15462 0.0987,0.15818 0.008,0.25788 0.0592,0.37068 0.14498,0.31769 0.0854,-0.0528 0.10775,-0.32518 0.0625,-0.76235 l -0.0705,-0.68021 0.18452,0.48335 c 0.21798,0.57099 0.2652,2.08075 0.0761,2.43403 -0.0974,0.18201 -0.0956,0.28472 0.007,0.38709 0.10524,0.10524 0.10386,0.13935 -0.006,0.13935 -0.24014,0 -0.62791,0.46472 -0.55226,0.66186 0.0979,0.25514 0.19888,0.23242 0.59391,-0.13368 l 0.34277,-0.31768 0.27905,0.32441 c 0.15486,0.18004 0.27905,0.48274 0.27905,0.68019 0,0.23568 0.0612,0.35576 0.18125,0.35576 0.26797,0 0.22011,0.25414 -0.0617,0.32784 -0.27741,0.0725 -0.42189,0.50137 -0.31388,0.93169 0.0713,0.28387 0.0855,0.28733 0.46623,0.11306 0.216,-0.0989 0.50149,-0.24008 0.63441,-0.31379 0.13291,-0.0737 0.44558,-0.17167 0.6948,-0.21768 0.68294,-0.12608 0.58263,0.18397 -0.13683,0.42294 -0.86358,0.28683 -0.9419,0.42644 -1.01946,1.81725 -0.0412,0.73828 -0.16197,1.47891 -0.31053,1.90382 -0.29764,0.85135 -1.26702,2.65038 -1.70237,3.15938 -0.17613,0.20592 -0.43852,0.54509 -0.58308,0.75369 -0.14456,0.2086 -0.40418,0.41475 -0.57693,0.45811 -0.25424,0.0638 -0.28705,0.11142 -0.17219,0.24982 0.17157,0.20672 0.0616,0.42181 -0.21833,0.42708 -0.18361,0.003 -0.18177,0.0209 0.0181,0.17238 0.28363,0.21491 0.17103,0.69324 -0.13798,0.58615 -0.11291,-0.0391 -0.26431,-0.14326 -0.33646,-0.23143 -0.19085,-0.23321 -1.49918,-0.31143 -1.58239,-0.0946 -0.0354,0.0923 -0.16734,0.16784 -0.29315,0.16784 -0.12581,0 -0.22874,0.0544 -0.22874,0.12084 0,0.0665 -0.0544,0.12083 -0.12084,0.12083 -0.12277,0 -0.60417,0.43327 -0.60417,0.54376 0,0.0332 0.11717,0.0604 0.26039,0.0604 0.2356,0 0.24336,0.0202 0.0815,0.21146 -0.0984,0.11631 -0.18575,0.34378 -0.19413,0.50548 -0.008,0.16171 -0.0994,0.34114 -0.20235,0.39872 -0.2952,0.16521 -0.21874,0.33437 0.15114,0.33437 0.27686,0 0.36598,-0.0767 0.49116,-0.42292 0.0841,-0.23261 0.20379,-0.42293 0.26595,-0.42293 0.15642,0 0.14232,0.33013 -0.0184,0.42943 -0.0722,0.0447 -0.10655,0.17608 -0.0762,0.29206 0.0303,0.11598 0.008,0.29548 -0.0501,0.3989 -0.0579,0.10342 -0.0715,0.27589 -0.0303,0.38327 0.0877,0.22848 0.37936,0.16733 1.00215,-0.21008 0.37164,-0.22521 0.38944,-0.25965 0.18126,-0.35094 -0.16095,-0.0706 -0.0997,-0.0855 0.20245,-0.0494 0.23831,0.0285 0.48301,0.0159 0.54376,-0.028 0.0608,-0.0439 0.10982,-0.36528 0.10903,-0.71419 -0.001,-0.57875 0.0225,-0.63439 0.27188,-0.63439 0.2483,0 0.33412,0.12278 0.28339,0.40543 -0.0102,0.0568 0.0419,0.17617 0.11575,0.26517 0.10201,0.12292 0.0769,0.21098 -0.10455,0.36632 -0.19854,0.17 -0.21849,0.26288 -0.11824,0.55048 0.17199,0.49335 0.37982,0.43783 0.70134,-0.18736 0.14421,-0.28042 0.14929,-0.36273 0.025,-0.40446 -0.1193,-0.04 -0.12319,-0.092 -0.0165,-0.22057 0.21037,-0.25348 0.35506,-0.0862 0.27438,0.31719 -0.0644,0.32217 -0.0407,0.35783 0.2385,0.35783 0.38086,0 0.49689,-0.1689 0.51883,-0.75523 0.0244,-0.65187 0.0345,-0.6948 0.16421,-0.6948 0.0644,0 0.0857,0.0816 0.0475,0.18125 -0.0487,0.12687 0.009,0.18126 0.19318,0.18126 0.21292,0 0.24729,-0.0487 0.18124,-0.25681 -0.0625,-0.19695 -0.0433,-0.23319 0.0824,-0.1555 0.0901,0.0557 0.32708,0.0896 0.5265,0.0752 0.36149,-0.0261 0.36124,-0.0255 -0.0839,0.18103 -0.2586,0.12 -0.47472,0.31981 -0.51364,0.47488 -0.037,0.14724 -0.16231,0.29258 -0.27857,0.32296 -0.18446,0.0482 -0.18176,0.057 0.0211,0.0693 0.22084,0.0133 0.21912,0.0283 -0.0342,0.29797 -0.23545,0.25063 -0.2452,0.30185 -0.083,0.43645 0.11082,0.092 0.26827,0.11455 0.39674,0.0569 0.37052,-0.1663 0.68728,-0.14908 0.82925,0.0451 0.12095,0.16542 0.15372,0.15734 0.27411,-0.0676 0.20182,-0.37709 0.18584,-0.39222 -0.41415,-0.39222 -0.30299,0 -0.52166,-0.0473 -0.48595,-0.10508 0.0357,-0.0578 0.52831,-0.0893 1.09465,-0.0699 0.64709,0.0221 1.02972,-0.011 1.02972,-0.089 0,-0.0683 0.13982,-0.23414 0.31071,-0.36856 0.22092,-0.17378 0.2733,-0.28181 0.18125,-0.37386 -0.0712,-0.0712 -0.12946,-0.23121 -0.12946,-0.35558 0,-0.20587 0.0171,-0.20907 0.19046,-0.0357 0.1286,0.1286 0.17828,0.35706 0.15299,0.70344 -0.0332,0.45392 -0.006,0.51747 0.2354,0.55198 0.15008,0.0215 0.26511,-0.006 0.25562,-0.0604 -0.01,-0.0547 -0.0108,-0.19856 -0.003,-0.31974 0.0187,-0.28815 0.40316,-0.21904 0.44696,0.0803 0.0505,0.34495 0.12286,0.35309 0.32991,0.0371 0.16144,-0.2464 0.16601,-0.32598 0.0294,-0.51276 -0.13342,-0.18246 -0.19397,-0.19428 -0.34653,-0.0677 -0.14957,0.12413 -0.23281,0.12348 -0.436,-0.003 -0.38859,-0.24267 -0.30134,-0.34038 0.30393,-0.34038 0.44682,0 0.56697,-0.0455 0.61608,-0.23331 0.0641,-0.24507 0.38172,-0.21898 0.35485,0.0292 -0.0177,0.16344 0.0635,0.20415 0.40736,0.20415 0.13292,0 0.24168,-0.0544 0.24168,-0.12083 0,-0.0665 -0.0816,-0.12084 -0.18126,-0.12084 -0.37818,0 -0.16071,-0.18225 0.24207,-0.20286 0.34998,-0.0179 0.4343,0.0264 0.4927,0.25912 0.0641,0.25526 0.13261,0.27914 0.75537,0.26328 0.50628,-0.0129 0.67592,-0.0602 0.65045,-0.18121 -0.0189,-0.0901 0.0254,-0.23581 0.0984,-0.32387 0.1717,-0.20688 -0.16825,-0.39057 -0.63794,-0.34472 -0.23533,0.023 -0.3323,-0.023 -0.3323,-0.15748 0,-0.15183 0.097,-0.17692 0.48334,-0.1251 0.36529,0.049 0.48334,0.0234 0.48334,-0.10492 0,-0.12962 -0.2,-0.16976 -0.84585,-0.16976 -0.48334,0 -0.84585,0.0518 -0.84585,0.12084 0,0.11632 0.1809,0.1725 0.41317,0.12832 0.0611,-0.0116 0.0447,0.0589 -0.0365,0.15671 -0.11098,0.13372 -0.23976,0.15139 -0.51923,0.0712 -0.22898,-0.0657 -0.45754,-0.0606 -0.5954,0.0132 -0.24889,0.1332 -0.83868,0.0283 -0.99314,-0.17659 -0.0708,-0.0939 -0.11765,-0.0885 -0.16111,0.0186 -0.074,0.18231 -1.37034,0.21089 -1.37034,0.0302 0,-0.0665 -0.10876,-0.12084 -0.24168,-0.12084 -0.13291,0 -0.24167,0.0765 -0.24167,0.16994 0,0.11045 -0.0846,0.14782 -0.24167,0.10675 -0.13292,-0.0348 -0.24167,-0.11124 -0.24167,-0.16994 0,-0.0587 -0.16313,-0.10675 -0.36251,-0.10675 -0.19938,0 -0.3625,0.0544 -0.3625,0.12084 0,0.0665 -0.0816,0.12083 -0.18126,0.12083 -0.22064,0 -0.22628,-0.0968 -0.0302,-0.51796 0.14752,-0.3169 0.17432,-0.32391 1.14799,-0.30037 0.83833,0.0203 1.00784,0.0584 1.06545,0.23996 0.0377,0.11873 0.14189,0.21587 0.23156,0.21587 0.0897,0 0.18363,0.0618 0.20881,0.1373 0.0328,0.0984 0.1186,0.0918 0.3032,-0.0235 0.20656,-0.12899 0.32159,-0.13154 0.58201,-0.0129 0.21815,0.0994 0.37216,0.10838 0.46972,0.0274 0.0798,-0.0663 0.34564,-0.0879 0.59066,-0.0482 0.27043,0.0439 0.44549,0.0237 0.44549,-0.0514 0,-0.18346 -0.21461,-0.22518 -1.11742,-0.2172 -0.70006,0.006 -0.81537,-0.0228 -0.81564,-0.20528 -2.4e-4,-0.18225 0.0341,-0.19101 0.24136,-0.0616 0.17911,0.11185 0.29681,0.11649 0.45462,0.0179 0.14058,-0.0878 0.31511,-0.0948 0.51355,-0.0206 0.16533,0.0618 1.0075,0.13682 1.87147,0.16665 0.86398,0.0298 1.99973,0.0788 2.5239,0.10875 1.39366,0.0797 1.38723,0.24488 -0.008,0.19471 -0.55294,-0.0199 -0.79954,0.16046 -0.37221,0.27221 0.21033,0.055 0.23672,0.10192 0.12192,0.21672 -0.1148,0.1148 -0.20932,0.1129 -0.43665,-0.009 -0.53958,-0.28878 -1.1558,0.17319 -0.97806,0.73323 0.0668,0.21039 0.1393,0.23594 0.45983,0.16201 0.43774,-0.10096 0.5334,-0.10118 1.32754,-0.003 0.47066,0.0581 0.66603,0.0218 1.00325,-0.1866 0.23032,-0.14235 0.45669,-0.21798 0.50304,-0.16807 0.0463,0.0499 0.0163,0.11502 -0.0668,0.14469 -0.2514,0.0898 -0.16934,0.2756 0.12084,0.27363 0.31185,-0.002 0.59941,-0.15654 0.58429,-0.31375 -0.006,-0.059 0.0576,-0.10733 0.14072,-0.10733 0.0839,0 0.13855,0.11917 0.12295,0.26802 -0.0249,0.23793 0.0225,0.26507 0.42292,0.24168 0.40704,-0.0238 0.45125,0.003 0.45331,0.27573 0.003,0.33251 0.084,0.35456 0.55995,0.1516 0.40362,-0.17211 0.52245,-0.35954 0.35549,-0.56072 -0.14668,-0.17674 -0.0573,-0.31588 0.20287,-0.31588 0.10506,0 0.14647,0.0718 0.10449,0.18125 -0.10181,0.2653 0.037,0.53874 0.23495,0.46279 0.0942,-0.0361 0.17125,-0.16231 0.17125,-0.28037 0,-0.25225 0.44207,-0.40089 0.7159,-0.24071 0.16545,0.0968 0.16138,0.11184 -0.0312,0.11503 -0.25742,0.004 -0.21656,0.23175 0.0746,0.41541 0.14251,0.0899 0.3115,0.0853 0.57937,-0.0158 0.34491,-0.13019 0.37298,-0.12291 0.3192,0.0828 -0.0405,0.15505 0.0187,0.24582 0.18963,0.29052 0.32928,0.0861 0.44833,-0.001 0.44833,-0.32922 0,-0.31527 0.2101,-0.56533 0.4104,-0.48847 0.0843,0.0323 0.12116,0.24342 0.0934,0.53432 -0.0398,0.41716 -0.0135,0.48087 0.19843,0.48087 0.13436,0 0.35171,-0.14746 0.483,-0.3277 0.20545,-0.28203 0.26579,-0.30523 0.433,-0.16646 0.10686,0.0887 0.19429,0.24197 0.19429,0.34063 0,0.12437 0.0649,0.15195 0.21146,0.0899 0.11631,-0.0492 0.36249,-0.0812 0.54708,-0.0712 0.21757,0.0119 0.44617,-0.0923 0.64992,-0.29601 0.1944,-0.1944 0.40056,-0.29174 0.54044,-0.25516 0.12438,0.0325 0.22614,0.007 0.22614,-0.0575 0,-0.0642 0.0553,-0.0825 0.12281,-0.0408 0.0675,0.0417 0.0843,0.14011 0.0372,0.2186 -0.0633,0.10559 -0.0403,0.10877 0.0887,0.0122 0.23787,-0.17809 1.08051,-0.21393 1.08051,-0.046 0,0.0751 0.0801,0.0532 0.18341,-0.0502 0.10087,-0.10087 0.16884,-0.25429 0.15104,-0.34093 -0.0178,-0.0866 0.0492,-0.15895 0.14889,-0.16071 0.0997,-0.002 0.24922,-0.0458 0.3323,-0.0978 0.15703,-0.0983 0.17424,-0.0484 0.19801,0.57414 0.007,0.19379 0.0901,0.37793 0.18375,0.4092 0.10914,0.0364 0.14661,-0.005 0.10435,-0.11499 -0.0522,-0.13613 0.0935,-0.17658 0.70075,-0.19458 0.63164,-0.0187 0.75466,0.009 0.69836,0.15537 -0.0376,0.0979 -0.0126,0.17808 0.0555,0.17808 0.0681,0 0.2099,0.033 0.31502,0.0734 0.12906,0.0495 0.19114,0.005 0.19114,-0.13644 0,-0.18973 0.0953,-0.20088 0.99689,-0.11657 0.54829,0.0513 1.10565,0.086 1.23857,0.0771 0.13292,-0.009 0.36737,0.0487 0.52101,0.12805 0.21959,0.11334 0.33289,0.11072 0.52974,-0.0122 0.19667,-0.12282 0.27008,-0.12456 0.34208,-0.008 0.0617,0.0998 0.49244,0.15288 1.31745,0.16226 0.69055,0.008 1.26342,0.0684 1.31196,0.13874 0.0474,0.0686 0.27649,0.11013 0.5091,0.0922 0.80031,-0.0617 1.86983,-0.018 1.99212,0.0814 0.0674,0.0547 0.60028,0.11872 1.18423,0.14215 0.70008,0.0281 1.09473,0.096 1.15861,0.19936 0.0782,0.12659 0.12432,0.12369 0.23949,-0.0151 0.11403,-0.13739 0.25724,-0.14761 0.71435,-0.051 0.31445,0.0665 0.60259,0.16919 0.64031,0.22822 0.0694,0.1086 0.34141,0.13841 2.68043,0.29377 0.71444,0.0475 1.29898,0.13292 1.29898,0.18992 0,0.057 0.2311,0.11136 0.51355,0.12079 l 0.51355,0.0171 -0.48334,0.0759 c -0.45599,0.0716 -0.46508,0.0809 -0.16064,0.164 0.34603,0.0944 0.7044,0.01 0.7044,-0.16631 0,-0.0594 0.0544,-0.10791 0.12084,-0.10791 0.0665,0 0.12083,0.0816 0.12083,0.18125 0,0.14384 0.1933,0.18529 0.93648,0.20079 l 0.93648,0.0195 -0.86639,0.0711 c -1.35198,0.11093 -1.2089,0.27612 0.20866,0.24092 1.25028,-0.031 1.63743,0.0365 1.49841,0.26144 -0.0382,0.0619 0.002,0.11716 0.0887,0.12288 0.58277,0.0383 -0.88789,0.24749 -2.58619,0.36792 -3.96972,0.28151 -1.89282,0.54464 4.89876,0.62063 2.13822,0.0239 2.53818,0.0571 2.65838,0.22019 0.11908,0.1616 0.28344,0.17679 1.03754,0.0958 1.01094,-0.1085 1.15156,-0.0705 0.97298,0.26322 -0.11834,0.22111 -0.0795,0.23434 0.68844,0.23434 0.59654,0 0.77802,0.0358 0.67966,0.13418 -0.22243,0.22243 -1.66718,0.52861 -4.74757,1.00613 -0.69783,0.10818 -1.92129,0.29983 -2.71881,0.42591 -4.7102,0.74461 -8.19528,1.04895 -12.93352,1.12945 -1.19854,0.0204 -2.23168,0.0644 -2.29588,0.0978 -0.0642,0.0334 -0.27985,0.0491 -0.47923,0.0349 -1.28384,-0.0916 -14.27103,-0.22015 -22.7171,-0.22482 -14.66314,-0.008 -20.11914,0.0605 -20.11914,0.25311 0,0.13464 0.35218,0.40594 0.52695,0.40594 0.0327,0 0.0844,-0.0952 0.11477,-0.21146 0.0395,-0.15113 0.0633,-0.12527 0.0836,0.0906 0.0156,0.16615 0.0203,0.36674 0.0104,0.44576 -0.0215,0.17241 0.76129,0.56568 0.98052,0.49261 0.085,-0.0283 0.22738,0.0213 0.31641,0.11035 0.089,0.089 0.21794,0.12721 0.28647,0.0848 0.16996,-0.10504 0.32306,0.17102 0.24993,0.45067 -0.0767,0.29341 -0.28392,0.28927 -0.66866,-0.0134 -0.16898,-0.13292 -0.37128,-0.24167 -0.44955,-0.24167 -0.0783,0 -0.52863,-0.19032 -1.00079,-0.42293 -0.86999,-0.42859 -1.11413,-0.49589 -1.20562,-0.3323 -0.0279,0.0498 -0.0358,0.0272 -0.0177,-0.0504 0.0181,-0.0776 -0.0496,-0.17274 -0.15052,-0.21147 -0.27341,-0.10492 -0.28458,-0.0958 -0.28458,0.23167 0,0.34359 -0.0969,0.3742 -0.42498,0.13428 -0.12622,-0.0923 -0.29986,-0.14081 -0.38587,-0.1078 -0.28643,0.10991 -0.75671,-0.0757 -0.6824,-0.26938 0.038,-0.099 0.0133,-0.18002 -0.0548,-0.18002 -0.0681,0 -0.21881,-0.0364 -0.33484,-0.081 -0.14383,-0.0552 -0.18316,-0.036 -0.12359,0.0604 0.0481,0.0778 0.055,0.19377 0.0154,0.2578 -0.0943,0.15261 -0.51999,-0.25394 -0.45704,-0.4365 0.0978,-0.28362 -0.204,-0.27839 -0.514,0.009 -0.24323,0.22543 -0.29293,0.34607 -0.20632,0.50083 0.0775,0.13845 0.14114,0.16012 0.19836,0.0675 0.14652,-0.23708 0.45696,-0.16206 0.37664,0.091 -0.0869,0.27377 0.19997,0.42197 0.41876,0.21633 0.11538,-0.10843 0.16351,-0.1066 0.20551,0.008 0.0302,0.0822 0.15927,0.27251 0.28691,0.42293 0.22812,0.26886 0.23513,0.26952 0.41339,0.0389 0.16186,-0.20937 0.23683,-0.17736 0.19564,0.0835 -0.008,0.0498 0.0265,0.0842 0.0763,0.0763 0.25064,-0.0396 0.39272,0.0326 0.39272,0.19946 0,0.22831 0.49213,0.43266 0.67952,0.28216 0.0888,-0.0713 0.20139,-0.009 0.32536,0.18033 0.22566,0.34439 0.79967,0.52749 0.9403,0.29994 0.0665,-0.10754 0.13503,-0.0491 0.22741,0.19392 0.10053,0.2644 0.16599,0.31416 0.27278,0.20737 0.21067,-0.21067 0.4728,-0.16919 0.44837,0.0709 -0.0377,0.3703 0.002,0.42611 0.19034,0.26958 0.15386,-0.12769 0.17154,-0.12022 0.1079,0.0456 -0.0561,0.14629 -0.007,0.19835 0.18562,0.19835 0.14395,0 0.22813,-0.0544 0.18705,-0.12084 -0.0867,-0.14021 0.0652,-0.15803 0.24167,-0.0284 0.0665,0.0488 0.18104,0.19753 0.25463,0.33045 0.16956,0.3063 0.53081,0.38971 0.53081,0.12257 0,-0.10849 0.0544,-0.16364 0.12083,-0.12257 0.0665,0.0411 0.12084,0.18455 0.12084,0.31882 0,0.20854 0.053,0.23251 0.36342,0.16432 0.28129,-0.0618 0.49382,3.7e-4 0.94045,0.27523 0.31737,0.19528 0.83353,0.46851 1.14702,0.60719 0.45234,0.20009 0.57,0.31233 0.57,0.54376 0,0.27227 0.0433,0.29162 0.65261,0.29162 0.45621,0 0.7787,0.0779 1.07158,0.25893 0.23043,0.14241 0.48414,0.25894 0.5638,0.25894 0.0797,0 0.32307,0.13594 0.54091,0.30208 0.21783,0.16615 0.45224,0.30209 0.5209,0.30209 0.0687,0 0.19459,0.084 0.27983,0.18676 0.0852,0.10271 0.22833,0.15861 0.31797,0.12421 0.0896,-0.0344 0.22995,0.0447 0.3118,0.17575 0.0819,0.13106 0.24969,0.2383 0.37299,0.2383 0.23762,0 0.95882,0.36072 1.02675,0.51355 0.0222,0.0498 0.1309,0.0932 0.24167,0.0964 0.33668,0.01 1.63132,0.79972 1.66289,1.01482 0.0163,0.1108 -0.007,0.1839 -0.0514,0.16245 -0.0445,-0.0214 -0.88395,-0.43656 -1.86541,-0.92246 -0.98146,-0.4859 -1.8494,-0.86182 -1.92876,-0.83537 -0.14334,0.0478 0.63881,0.4897 2.30055,1.29981 0.47714,0.23261 0.86784,0.45952 0.86823,0.50426 3.6e-4,0.0447 0.16382,0.24446 0.3632,0.44383 0.22426,0.22426 0.36251,0.29693 0.36251,0.19055 0,-0.0946 0.11457,-0.17195 0.2546,-0.17195 0.17607,0 0.23326,0.0556 0.18541,0.1803 -0.0449,0.11694 0.053,0.24349 0.27858,0.36014 0.65891,0.34073 2.3643,1.69618 3.07439,2.44352 0.74626,0.78542 1.64462,2.0009 1.64462,2.22518 0,0.0723 0.16727,0.28775 0.37171,0.47872 0.20444,0.19098 0.34069,0.39741 0.30278,0.45875 -0.0379,0.0613 0.0123,0.1427 0.11164,0.1808 0.0993,0.0381 0.18155,0.16616 0.18276,0.28455 0.001,0.11839 0.16434,0.45453 0.36251,0.74699 0.36247,0.53493 0.47088,1.13778 0.23123,1.28589 -0.071,0.0439 -0.0963,0.16508 -0.0563,0.26935 0.04,0.10427 0.003,0.23387 -0.0824,0.28801 -0.18312,0.1162 -0.12776,0.12129 -0.85465,-0.0786 z m -1.29427,-4.41101 c 0,-0.0665 -0.0952,-0.12001 -0.21146,-0.11899 -0.18072,0.002 -0.18511,0.0189 -0.0302,0.11899 0.22804,0.14737 0.24167,0.14737 0.24167,0 z m -21.99209,-5.55844 c 0,-0.0665 -0.0576,-0.12084 -0.12797,-0.12084 -0.0704,0 -0.0944,0.0544 -0.0533,0.12084 0.0411,0.0665 0.0987,0.12083 0.12797,0.12083 0.0293,0 0.0533,-0.0544 0.0533,-0.12083 z m -2.53755,-1.08753 c 0,-0.0664 -0.0544,-0.12083 -0.12084,-0.12083 -0.0665,0 -0.12083,0.0544 -0.12083,0.12083 0,0.0665 0.0544,0.12084 0.12083,0.12084 0.0665,0 0.12084,-0.0544 0.12084,-0.12084 z m 15.70863,-0.53662 c 0,-0.0293 -0.0544,-0.0869 -0.12083,-0.12797 -0.0665,-0.0411 -0.12084,-0.0171 -0.12084,0.0533 0,0.0704 0.0544,0.12797 0.12084,0.12797 0.0665,0 0.12083,-0.024 0.12083,-0.0533 z m -34.075656,-4.51974 c 0,-0.35309 -1.574624,-0.84463 -1.954204,-0.61004 -0.183089,0.11316 -0.119002,0.14156 0.915183,0.40557 0.392203,0.10012 0.741116,0.21006 0.775362,0.24431 0.09785,0.0978 0.263659,0.0728 0.263659,-0.0398 z m -1.450028,-1.71043 c 0,-0.0665 -0.05438,-0.12084 -0.120836,-0.12084 -0.06646,0 -0.120835,0.0544 -0.120835,0.12084 0,0.0665 0.05438,0.12083 0.120835,0.12083 0.06646,0 0.120836,-0.0544 0.120836,-0.12083 z m 26.003834,-0.99086 c -0.0775,-0.0775 -0.18109,-0.10086 -0.23011,-0.0518 -0.049,0.049 -0.0107,0.13761 0.0851,0.19684 0.22567,0.13947 0.32757,0.0376 0.145,-0.14501 z m -4.85759,-0.0967 c 0,-0.0665 0.11328,-0.12084 0.25174,-0.12084 0.14741,0 0.23109,-0.0626 0.20192,-0.15104 -0.0302,-0.0915 -0.32476,-0.16548 -0.74729,-0.18765 -0.53151,-0.0279 -0.68473,8.4e-4 -0.64398,0.12083 0.0294,0.0866 0.21163,0.15744 0.40492,0.15744 0.2167,0 0.33985,0.0579 0.32123,0.15105 -0.0166,0.0831 0.0242,0.15104 0.0906,0.15104 0.0665,0 0.12083,-0.0544 0.12083,-0.12083 z m 4.16037,-0.3762 c -0.10297,-0.1666 -0.41447,-0.12604 -0.41447,0.054 0,0.0886 0.0358,0.19689 0.0795,0.24062 0.10928,0.10928 0.41719,-0.16153 0.33496,-0.29459 z m 22.93106,-4.64618 c 0.15122,-0.048 0.28877,-0.0148 0.35335,0.0854 0.0883,0.13686 0.12421,0.13529 0.21738,-0.01 0.085,-0.13209 0.15119,-0.14064 0.27745,-0.0359 0.18742,0.15554 0.68981,0.15785 0.89521,0.004 0.0757,-0.0567 0.28063,-0.0472 0.461,0.0214 0.47961,0.18235 0.9131,0.1549 0.9131,-0.0578 0,-0.13975 -0.15913,-0.18196 -0.69481,-0.18433 -2.40997,-0.0107 -5.77621,-0.15513 -5.81043,-0.24934 -0.0223,-0.0614 -0.0971,-0.0766 -0.16623,-0.0339 -0.0691,0.0427 -2.15973,0.0785 -4.64578,0.0796 -3.22661,0.001 -4.50744,0.0399 -4.47591,0.13453 0.031,0.0932 1.67657,0.14031 5.5307,0.15845 3.45543,0.0163 5.50115,0.0697 5.52604,0.14436 0.0409,0.12274 1.17878,0.0827 1.61893,-0.057 z m -14.28285,-0.16767 c 0,-0.0799 -0.4356,-0.12604 -1.17815,-0.12487 -0.64798,9.6e-4 -1.11465,0.0418 -1.03705,0.0906 0.23343,0.14687 2.2152,0.17751 2.2152,0.0343 z m 1.29647,-0.0789 c -0.0401,-0.0402 -0.14438,-0.0444 -0.23161,-0.01 -0.0964,0.0386 -0.0678,0.0672 0.073,0.073 0.12738,0.005 0.19875,-0.0233 0.1586,-0.0635 z m 45.04401,-0.16867 c 0.0411,-0.0665 -0.0405,-0.12083 -0.18125,-0.12083 -0.14077,0 -0.22233,0.0544 -0.18126,0.12083 0.0411,0.0665 0.12264,0.12084 0.18126,0.12084 0.0586,0 0.14018,-0.0544 0.18125,-0.12084 z m -17.73554,-0.68608 c 0.0233,-0.07 -0.082,-0.11429 -0.23412,-0.0985 -0.40336,0.0419 -0.41518,0.0518 -0.21611,0.18029 0.20851,0.13462 0.38902,0.10183 0.45023,-0.0818 z m -0.88541,-0.0358 c -0.38748,-0.15707 -1.29356,-0.19414 -1.33999,-0.0548 -0.025,0.075 0.28011,0.13027 0.77637,0.14065 0.5541,0.0116 0.73572,-0.0161 0.56362,-0.0858 z m -4.43804,-0.3249 c -0.0357,-0.0357 -0.12876,-0.0255 -0.20674,0.0226 -0.10512,0.065 -0.0994,0.11396 0.0222,0.18948 0.16113,0.10011 0.31731,-0.0794 0.18457,-0.21213 z m 0.88564,0.13335 c 0,-0.10361 -0.0553,-0.15423 -0.1228,-0.11248 -0.0675,0.0417 -0.0915,0.12651 -0.0533,0.18838 0.10358,0.16761 0.17609,0.13635 0.17609,-0.0759 z m -3.08078,-0.0541 c 0.0414,-0.0669 -0.0121,-0.15521 -0.11891,-0.19618 -0.23136,-0.0888 -0.3603,0.009 -0.24909,0.189 0.10034,0.16235 0.27006,0.16566 0.368,0.007 z m 1.14741,-0.0596 c 0,-0.0997 -0.0512,-0.18126 -0.1137,-0.18126 -0.15237,0 -0.2615,0.1887 -0.16496,0.28524 0.13608,0.13608 0.27866,0.0829 0.27866,-0.10398 z m -13.8961,-0.0456 c 0,-0.0583 -0.0698,-0.16397 -0.1551,-0.23476 -0.18754,-0.15565 -0.51542,0.0148 -0.39701,0.20645 0.0981,0.15868 0.55211,0.18196 0.55211,0.0283 z m 1.2501,-0.0803 c -0.0791,-0.20625 -0.30198,-0.18088 -0.37656,0.0429 -0.0266,0.0797 0.0624,0.1435 0.20012,0.1435 0.17378,0 0.22656,-0.0558 0.17644,-0.18636 z m 8.62561,-0.0173 c 0.0564,-0.16918 -0.4283,-0.29261 -0.5263,-0.13403 -0.0835,0.13512 0.18977,0.35498 0.37031,0.29793 0.0623,-0.0197 0.1325,-0.0934 0.15599,-0.1639 z m -5.24096,-0.0966 c 0.0406,-0.10569 -0.0293,-0.23196 -0.17012,-0.3073 -0.18878,-0.10103 -0.25498,-0.0862 -0.3152,0.0708 -0.043,0.11199 -0.003,0.24525 0.0924,0.30545 0.23709,0.15013 0.31402,0.13663 0.3929,-0.0689 z m 1.94252,-0.002 c -0.0104,-0.15151 -0.62338,-0.37531 -0.7316,-0.26709 -0.044,0.044 -0.009,0.1655 0.0777,0.27 0.16785,0.20224 0.6678,0.20002 0.65391,-0.003 z m 1.27705,-0.0524 c 0,-0.0542 -0.13704,-0.0986 -0.30453,-0.0986 -0.27782,0 -0.28588,0.0136 -0.092,0.15544 0.21251,0.15539 0.39649,0.12901 0.39649,-0.0568 z m -13.72473,0.0395 c 0.26744,-0.10263 0.23924,-0.41 -0.0376,-0.41 -0.22953,0 -0.42181,0.27586 -0.28655,0.41111 0.0889,0.0889 0.0895,0.0889 0.32416,-10e-4 z m 8.18503,-0.0475 c 0.0659,0 0.10223,-0.0878 0.0807,-0.19505 -0.053,-0.26467 -1.91202,-0.38133 -1.91202,-0.11998 0,0.12417 0.13715,0.14905 0.55939,0.10146 0.44638,-0.0503 0.58284,-0.0211 0.67549,0.14442 0.0653,0.11671 0.19496,0.17722 0.29635,0.13831 0.0991,-0.038 0.23415,-0.0692 0.30005,-0.0692 z m 3.36466,-0.0604 c 0,-0.12083 -0.12084,-0.18125 -0.36251,-0.18125 -0.58784,0 -0.41146,0.29068 0.21146,0.34849 0.0831,0.008 0.15105,-0.0675 0.15105,-0.16724 z m -17.7647,-0.34506 c -0.003,-0.39069 -0.1535,-0.56944 -0.36384,-0.43153 -0.15215,0.0998 -0.14393,0.1428 0.0565,0.29571 0.12901,0.0984 0.16979,0.17896 0.0906,0.17896 -0.0792,0 -0.14393,0.0799 -0.14393,0.17746 0,0.1081 0.0708,0.15028 0.18125,0.10791 0.0997,-0.0383 0.18042,-0.18608 0.1794,-0.32851 z m 0.93061,0.17515 c 0.0331,-0.12678 0.16973,-0.25912 0.3035,-0.29411 0.13378,-0.035 0.21908,-0.13516 0.18957,-0.22263 -0.0295,-0.0875 0.0232,-0.34365 0.11706,-0.56929 0.20026,-0.48125 0.0927,-0.60164 -0.46429,-0.51988 -0.29385,0.0431 -0.35737,0.10189 -0.30921,0.28606 0.0333,0.12748 -0.0163,0.37893 -0.11022,0.55877 -0.14926,0.28567 -0.14755,0.34426 0.0135,0.46374 0.16441,0.12198 0.16353,0.14472 -0.008,0.21061 -0.10586,0.0406 -0.15862,0.12861 -0.11726,0.19554 0.12133,0.19631 0.32043,0.14011 0.38552,-0.10881 z m 1.21683,0.0795 c -0.0594,-0.18101 -0.69556,-0.27933 -0.69556,-0.10751 0,0.11467 0.23833,0.21446 0.58404,0.24454 0.0886,0.008 0.1388,-0.054 0.11152,-0.13703 z m 2.06352,0.0302 c -0.0221,-0.0665 -0.0947,-0.12083 -0.16111,-0.12083 -0.0665,0 -0.13896,0.0544 -0.16111,0.12083 -0.0221,0.0665 0.0503,0.12084 0.16111,0.12084 0.11077,0 0.18327,-0.0544 0.16111,-0.12084 z m 5.80208,-0.0759 c 0.17614,-0.0286 0.38823,-0.0595 0.47131,-0.0686 0.0831,-0.009 0.15104,-0.0619 0.15104,-0.11732 0,-0.11583 -0.97321,-0.13697 -1.25889,-0.0273 -0.30182,0.11582 -0.24268,0.44264 0.0626,0.34576 0.13954,-0.0443 0.39782,-0.10391 0.57397,-0.13249 z m 2.43489,-0.16197 c 0,-0.0725 -0.31571,-0.12387 -0.75522,-0.12279 -0.87391,0.002 -0.7672,0.16304 0.14154,0.21342 0.36305,0.0201 0.61368,-0.0169 0.61368,-0.0906 z m 2.50482,0.044 c -0.0401,-0.0402 -0.14437,-0.0444 -0.2316,-0.01 -0.0964,0.0386 -0.0678,0.0672 0.073,0.073 0.12738,0.005 0.19875,-0.0233 0.1586,-0.0635 z m -0.44073,-0.65201 c 0.061,0 0.11095,-0.0805 0.11095,-0.17895 0,-0.19117 -0.51229,-0.37544 -0.70782,-0.25459 -0.0646,0.0399 -0.13563,0.0223 -0.15792,-0.0391 -0.0641,-0.17646 -0.70512,-0.002 -0.70512,0.1919 0,0.12536 0.10046,0.15859 0.35716,0.11813 0.22362,-0.0353 0.41157,0.009 0.5027,0.11908 0.08,0.0965 0.22284,0.1457 0.31732,0.10945 0.0945,-0.0363 0.2217,-0.0659 0.28273,-0.0659 z m 0.76566,0.0475 c 0.29418,-0.11288 0.22654,-0.28916 -0.11095,-0.28916 -0.29337,0 -0.38582,0.11766 -0.22153,0.28195 0.0981,0.0981 0.0958,0.098 0.33248,0.007 z m -8.20694,-0.40999 c 0.0411,-0.0665 0.0171,-0.12084 -0.0533,-0.12084 -0.0704,0 -0.12797,0.0544 -0.12797,0.12084 0,0.0665 0.024,0.12083 0.0533,0.12083 0.0293,0 0.0869,-0.0544 0.12797,-0.12083 z m 8.821,-1.57087 c 0.0411,-0.0665 -0.0101,-0.12083 -0.1137,-0.12083 -0.10361,0 -0.18838,0.0544 -0.18838,0.12083 0,0.0665 0.0512,0.12084 0.1137,0.12084 0.0625,0 0.14731,-0.0544 0.18838,-0.12084 z m -6.58554,-0.2546 c 0,-0.0736 -0.0855,-0.10095 -0.19001,-0.0608 -0.1045,0.0401 -0.29152,0.0186 -0.41559,-0.0478 -0.13477,-0.0721 -0.25316,-0.0761 -0.29409,-0.01 -0.085,0.13753 0.13175,0.23027 0.56739,0.24278 0.18277,0.005 0.3323,-0.0507 0.3323,-0.12422 z m 0.45062,0.0608 c -0.0401,-0.0401 -0.14438,-0.0444 -0.2316,-0.01 -0.0964,0.0386 -0.0678,0.0672 0.073,0.073 0.12738,0.005 0.19875,-0.0233 0.15859,-0.0635 z m -5.04237,-0.2895 c 0,-0.0665 -0.13594,-0.12084 -0.30209,-0.12084 -0.16615,0 -0.30209,0.0544 -0.30209,0.12084 0,0.0665 0.13594,0.12084 0.30209,0.12084 0.16615,0 0.30209,-0.0544 0.30209,-0.12084 z m -3.82601,-9.06262 c 0.241,-0.22304 -0.16412,-0.21632 -0.42087,0.007 l -0.28446,0.24741 0.30209,-0.0804 c 0.16615,-0.0442 0.34761,-0.12251 0.40324,-0.174 z m 4.44151,-2.302 c 0.13041,-0.0698 0.20496,-0.17893 0.16565,-0.24252 -0.0393,-0.0636 0.0136,-0.14825 0.11745,-0.18812 0.10391,-0.0399 0.18892,-0.14824 0.18892,-0.24082 0,-0.19467 -0.19243,-0.22492 -0.30209,-0.0475 -0.0411,0.0665 -0.22826,0.12084 -0.41597,0.12084 -0.40751,0 -0.59102,0.412 -0.2676,0.60079 0.2528,0.14757 0.23272,0.14767 0.51364,-0.003 z m -0.253,36.61928 c -0.10891,-0.0704 -0.12381,-0.11788 -0.0373,-0.11899 0.0791,-9.7e-4 0.17752,0.0525 0.2186,0.11899 0.0927,0.15002 0.0509,0.15002 -0.18126,0 z m 7.06889,-3.74591 c -0.19938,-0.13204 -0.30813,-0.23923 -0.24167,-0.23819 0.12115,0.002 0.77815,0.47282 0.66459,0.47638 -0.0332,0.001 -0.22354,-0.10615 -0.42292,-0.23819 z m -0.45538,-0.78822 c -0.50828,-0.29753 -0.9672,-0.54144 -1.01981,-0.54202 -0.0969,-0.001 -1.00194,-0.82039 -1.00194,-0.90705 0,-0.0259 0.27188,0.094 0.60418,0.26644 0.33229,0.1724 0.60417,0.35645 0.60417,0.409 0,0.0525 0.11928,0.13339 0.26506,0.17966 0.14578,0.0463 0.54,0.27507 0.87606,0.50844 0.74882,0.52003 0.72426,0.49868 0.65407,0.56887 -0.0317,0.0317 -0.4735,-0.1858 -0.98179,-0.48334 z m 0.96893,-0.80225 c -0.18276,-0.0667 -0.3323,-0.17121 -0.3323,-0.23213 0,-0.13883 0.005,-0.13859 0.46531,0.0219 0.2093,0.073 0.38054,0.18171 0.38054,0.24167 0,0.13161 -0.0807,0.12667 -0.51355,-0.0314 z m -1.05731,-0.58457 c -0.33711,-0.26369 -0.28756,-0.29908 0.17339,-0.12383 0.17047,0.0648 0.30995,0.17357 0.30995,0.24167 0,0.18265 -0.1441,0.14751 -0.48334,-0.11784 z m -0.6646,-0.36251 c -0.0411,-0.0665 -0.0203,-0.12084 0.0461,-0.12084 0.0665,0 0.15444,0.0544 0.19552,0.12084 0.0411,0.0665 0.0203,0.12084 -0.0462,0.12084 -0.0665,0 -0.15444,-0.0544 -0.19552,-0.12084 z m 2.62818,-0.0266 c -0.14954,-0.0721 -0.27188,-0.17719 -0.27188,-0.2335 0,-0.0563 -0.0739,-0.10237 -0.16423,-0.10237 -0.28894,0 -1.58777,-0.7123 -1.59112,-0.8726 -0.002,-0.0881 -0.12105,-0.14171 -0.27741,-0.12474 -0.1508,0.0164 -0.39213,-0.0801 -0.53629,-0.21442 -0.14416,-0.13431 -0.31839,-0.22282 -0.38718,-0.19669 -0.20685,0.0786 -0.66884,-0.14273 -0.66884,-0.32037 0,-0.0912 -0.13594,-0.22769 -0.30209,-0.3034 -0.24808,-0.11303 -0.30209,-0.1057 -0.30209,0.041 0,0.22557 -0.1313,0.22661 -0.43004,0.003 -0.22422,-0.16753 -0.22174,-0.17201 0.0562,-0.10181 0.39425,0.0996 0.2356,-0.14659 -0.25947,-0.4026 -0.33816,-0.17487 -0.39009,-0.17573 -0.5124,-0.008 -0.12235,0.16732 -0.17665,0.16651 -0.53689,-0.008 -0.3874,-0.18762 -0.3917,-0.19745 -0.12895,-0.29465 0.17382,-0.0643 0.33488,-0.0482 0.44671,0.0446 0.12225,0.10146 0.19939,0.10609 0.2563,0.0154 0.0545,-0.0868 0.26137,-0.0428 0.62518,0.13293 0.29907,0.14448 0.87002,0.39156 1.26877,0.54908 0.39876,0.15751 0.77668,0.33229 0.83981,0.38839 0.0631,0.0561 0.21267,0.10199 0.3323,0.10199 0.11963,0 0.2175,0.0576 0.2175,0.12797 0,0.0704 0.05,0.0971 0.1111,0.0593 0.0611,-0.0378 0.18474,-2.4e-4 0.27476,0.0835 0.09,0.0837 0.22674,0.16456 0.30385,0.17971 0.22902,0.045 1.93954,1.08383 2.22962,1.35408 l 0.26797,0.24965 -0.29466,-0.008 c -0.16207,-0.005 -0.41701,-0.0672 -0.56655,-0.1393 z m -2.99068,-0.0942 c -0.0411,-0.0665 -0.0171,-0.12083 0.0533,-0.12083 0.0704,0 0.12796,0.0544 0.12796,0.12083 0,0.0665 -0.024,0.12084 -0.0533,0.12084 -0.0293,0 -0.0869,-0.0544 -0.12796,-0.12084 z m -0.90627,-0.48334 c 0,-0.0665 0.0544,-0.12083 0.12083,-0.12083 0.0665,0 0.12084,0.0544 0.12084,0.12083 0,0.0665 -0.0544,0.12084 -0.12084,0.12084 -0.0665,0 -0.12083,-0.0544 -0.12083,-0.12084 z m -0.74236,-0.26599 c -0.22712,-0.0768 -0.33456,-0.21117 -0.37179,-0.4648 -0.0288,-0.1962 -0.021,-0.35645 0.0173,-0.35611 0.14353,0.001 1.03044,0.59618 0.8942,0.59979 -0.0782,0.002 -0.15976,0.077 -0.18125,0.16648 -0.029,0.12058 -0.12177,0.13473 -0.3585,0.0546 z m 0.80278,-0.0965 c -0.0411,-0.0664 -0.0203,-0.12083 0.0462,-0.12083 0.0665,0 0.15444,0.0544 0.19551,0.12083 0.0411,0.0665 0.0203,0.12084 -0.0462,0.12084 -0.0665,0 -0.15444,-0.0544 -0.19551,-0.12084 z m -2.32609,-0.73976 c -0.28245,-0.12984 -0.51355,-0.285 -0.51355,-0.34482 0,-0.0598 -0.0952,-0.1016 -0.21146,-0.0928 -0.11631,0.009 -0.76757,-0.25292 -1.44726,-0.58148 -0.93545,-0.45219 -1.23647,-0.65465 -1.23857,-0.83301 -0.002,-0.18327 0.0294,-0.20341 0.14223,-0.0906 0.0798,0.0797 0.24609,0.14501 0.36964,0.14501 0.12355,0 0.19493,0.0481 0.15863,0.10681 -0.0627,0.10136 0.26814,0.26802 0.86739,0.43699 0.14953,0.0422 0.27188,0.15845 0.27188,0.25842 0,0.11717 0.0966,0.17067 0.27188,0.15057 0.36305,-0.0416 0.84373,0.12696 1.00992,0.35423 0.0741,0.10139 0.21028,0.19683 0.30255,0.21209 0.39961,0.0661 0.84087,0.30273 0.77208,0.41403 -0.096,0.1554 -0.13992,0.14753 -0.75536,-0.13536 z m -0.9614,-1.59203 c -0.18245,-0.10141 -0.23427,-0.20047 -0.16419,-0.31387 0.0867,-0.14022 0.13691,-0.14 0.32701,0.001 0.23047,0.17147 0.35638,0.47257 0.1944,0.46491 -0.0498,-0.002 -0.21059,-0.071 -0.35722,-0.15246 z m -27.163104,-0.0849 c -0.334426,-0.0851 -0.339106,-0.0932 -0.06042,-0.10469 0.166149,-0.007 0.383654,0.0403 0.483343,0.10469 0.205655,0.13291 0.09938,0.13291 -0.422925,0 z m -1.008036,-0.10905 c -0.125857,-0.0778 -0.115464,-0.11614 0.04851,-0.17907 0.248873,-0.0955 0.385591,0.004 0.225442,0.16427 -0.06258,0.0626 -0.185864,0.0692 -0.273956,0.0148 z m 24.83372,-0.22577 c -0.1878,-0.0938 -0.31481,-0.19714 -0.28223,-0.22971 0.0326,-0.0326 0.16906,-4.9e-4 0.3033,0.0714 0.33988,0.1819 0.43721,0.16294 0.25996,-0.0506 -0.12567,-0.15143 -0.10823,-0.18125 0.10604,-0.18125 0.17108,0 0.25647,0.0762 0.25647,0.22874 0,0.30888 -0.23179,0.36703 -0.64354,0.16145 z m -25.698637,-0.0277 c 0,-0.0665 0.08156,-0.12083 0.181254,-0.12083 0.09969,0 0.181253,0.0544 0.181253,0.12083 0,0.0665 -0.08156,0.12084 -0.181253,0.12084 -0.09969,0 -0.181254,-0.0544 -0.181254,-0.12084 z m 27.550537,-0.3625 c -0.22332,-0.19938 -0.36636,-0.36251 -0.31786,-0.36251 0.20266,0 0.77727,0.36752 0.84318,0.53929 0.10953,0.28544 -0.0785,0.22217 -0.52532,-0.17678 z m -2.59711,0.001 c -0.0423,-0.0685 0.006,-0.0888 0.1137,-0.0475 0.20934,0.0803 0.24764,0.16694 0.0738,0.16694 -0.0625,0 -0.14693,-0.0538 -0.18753,-0.11945 z m 1.41896,-0.36765 c -0.28493,-0.11453 -0.35245,-0.29469 -0.15596,-0.41613 0.15379,-0.095 0.60909,0.19539 0.60909,0.38854 0,0.17496 -0.0751,0.17953 -0.45313,0.0276 z m -3.07008,-0.40949 c -0.37096,-0.22346 -0.79112,-0.44332 -0.93368,-0.48857 -0.16042,-0.0509 -0.2247,-0.13652 -0.16868,-0.22461 0.0498,-0.0783 0.0982,-0.18313 0.10749,-0.23297 0.009,-0.0498 0.0238,-0.11973 0.0321,-0.1553 0.008,-0.0356 0.13366,-0.001 0.27855,0.0763 0.24305,0.13007 0.24756,0.15261 0.0581,0.29111 -0.1806,0.13206 -0.12296,0.18911 0.47903,0.47415 0.47454,0.22468 0.72293,0.28542 0.81023,0.19812 0.0873,-0.0873 0.19307,-0.0651 0.34504,0.0724 0.56532,0.51161 -0.15379,0.50398 -1.00818,-0.0107 z m 2.09326,-0.17596 c -0.13137,-0.0833 -0.12797,-0.11491 0.0184,-0.17108 0.18677,-0.0717 0.32404,0.003 0.32404,0.17625 0,0.12786 -0.13581,0.12581 -0.34243,-0.005 z m -0.93791,-0.35524 c -0.12371,-0.0846 -0.20426,-0.62641 -0.0931,-0.62641 0.10957,0 0.40678,0.34163 0.40678,0.46758 0,0.17135 -0.16969,0.25728 -0.31365,0.15883 z m -3.12832,-0.67245 c 0.0392,-0.36215 0.0392,-0.36214 0.23983,-0.19563 0.24182,0.20069 0.2285,0.32196 -0.0432,0.393 -0.17163,0.0449 -0.21789,-0.002 -0.19667,-0.19737 z m 2.06522,0.18768 c -0.0979,-0.15835 0.12127,-0.62499 0.29349,-0.62499 0.16751,0 0.14355,0.27944 -0.0462,0.53897 -0.1106,0.15126 -0.18989,0.17884 -0.24726,0.086 z m -3.06395,-0.5896 c -0.24022,-0.51725 -0.19989,-0.72122 0.0906,-0.45831 0.13291,0.12029 0.24332,0.1695 0.24534,0.10935 0.002,-0.0601 0.0607,-0.0113 0.13038,0.10844 0.0909,0.15625 0.0857,0.26721 -0.0185,0.39271 -0.20295,0.24454 -0.275,0.22006 -0.44788,-0.15219 z m 2.16423,0.0194 c -0.17882,-0.39247 -0.17664,-0.41724 0.0368,-0.41724 0.17606,0 0.42717,0.35048 0.42717,0.59623 0,0.25026 -0.3256,0.12464 -0.46394,-0.17899 z m -3.72155,-0.79422 c -0.79799,-0.39434 -0.97213,-0.52885 -0.92383,-0.71357 0.0549,-0.21005 0.0814,-0.2133 0.34266,-0.0421 0.15572,0.10203 0.35394,0.20032 0.44048,0.21842 0.46713,0.0977 1.03484,0.45287 1.15882,0.72499 0.0777,0.17055 0.10167,0.30742 0.0532,0.30415 -0.0484,-0.003 -0.53054,-0.22461 -1.07139,-0.49187 z m 2.77604,0.30844 c -0.04,-0.10416 -0.0111,-0.25098 0.0642,-0.32626 0.10195,-0.10195 0.13688,-0.0536 0.13688,0.18938 0,0.36355 -0.0905,0.42514 -0.20109,0.13688 z m 31.01419,-1.79498 c 0,-0.25512 0.15483,-0.31385 0.54927,-0.20836 0.37117,0.0993 0.3151,0.17818 -0.21697,0.30536 -0.24705,0.059 -0.3323,0.0342 -0.3323,-0.097 z m 3.46054,-0.009 c -0.0383,-0.0997 -0.0169,-0.18125 0.0475,-0.18125 0.0644,0 0.11704,0.0816 0.11704,0.18125 0,0.0997 -0.0214,0.18126 -0.0475,0.18126 -0.0261,0 -0.0788,-0.0816 -0.11704,-0.18126 z m 0.84974,0.0101 c -0.0545,-0.142 0.002,-0.19139 0.21772,-0.19139 0.29803,0 0.51312,0.19509 0.37137,0.33684 -0.0435,0.0435 -0.1305,-8.5e-4 -0.19335,-0.0987 -0.0938,-0.14588 -0.13292,-0.14885 -0.21828,-0.0166 -0.0839,0.12996 -0.11825,0.12411 -0.17746,-0.0302 z m 2.33568,0.0375 c 0,-0.0724 0.29593,-0.22889 0.43281,-0.22889 0.0278,0 0.0505,0.0782 0.0505,0.17374 0,0.0993 -0.10361,0.16594 -0.24167,0.15554 -0.13292,-0.01 -0.24167,-0.0552 -0.24167,-0.10039 z m 0.9013,0.005 c -0.0438,-0.0709 -0.0506,-0.15789 -0.0152,-0.19335 0.0866,-0.0866 0.32223,0.066 0.32223,0.20853 0,0.15442 -0.20861,0.14411 -0.30706,-0.0152 z m 1.03216,-0.0222 c 4e-5,-0.0831 0.13797,-0.15901 0.3065,-0.16874 0.2494,-0.0144 0.28036,0.0137 0.16637,0.15104 -0.17399,0.20965 -0.47299,0.22084 -0.47287,0.0177 z m 0.72493,-0.0231 c 0,-0.10362 0.0544,-0.18839 0.12083,-0.18839 0.0665,0 0.12084,0.0512 0.12084,0.1137 0,0.0625 -0.0544,0.14732 -0.12084,0.18839 -0.0665,0.0411 -0.12083,-0.0101 -0.12083,-0.1137 z m 0.48334,0.0525 c 0,-0.0645 0.12235,-0.1157 0.27188,-0.11368 0.14953,0.002 1.0842,-0.0252 2.07704,-0.0604 1.21827,-0.0433 1.76539,-0.0243 1.68282,0.0583 -0.16205,0.16205 -4.03174,0.27328 -4.03174,0.11588 z m -4.47092,-0.12005 c 0,-0.0665 0.0576,-0.12084 0.12797,-0.12084 0.0704,0 0.0944,0.0544 0.0533,0.12084 -0.0411,0.0665 -0.0987,0.12083 -0.12797,0.12083 -0.0293,0 -0.0533,-0.0544 -0.0533,-0.12083 z m -28.51722,-0.12463 c 0,-0.0644 0.0816,-0.11704 0.18126,-0.11704 0.0997,0 0.18125,0.0214 0.18125,0.0475 0,0.0261 -0.0816,0.0788 -0.18125,0.11705 -0.0997,0.0382 -0.18126,0.0169 -0.18126,-0.0475 z m 0.69481,-0.0815 c 0.14953,-0.0288 0.39422,-0.0288 0.54376,0 0.14953,0.0288 0.0272,0.0524 -0.27188,0.0524 -0.29907,0 -0.42142,-0.0236 -0.27188,-0.0524 z m 1.48023,-0.0356 c 0.23664,-0.15293 0.39661,-0.15293 0.30209,0 -0.0411,0.0664 -0.16663,0.12 -0.27901,0.11898 -0.17609,-0.002 -0.17928,-0.018 -0.0231,-0.11898 z m 1.14794,0 c 0.0411,-0.0665 0.0987,-0.12084 0.12797,-0.12084 0.0293,0 0.0533,0.0544 0.0533,0.12084 0,0.0664 -0.0576,0.12083 -0.12797,0.12083 -0.0704,0 -0.0944,-0.0544 -0.0533,-0.12083 z m 16.73574,0.0733 c 0,-0.0261 0.0816,-0.0788 0.18126,-0.11704 0.0997,-0.0383 0.18125,-0.0169 0.18125,0.0475 0,0.0644 -0.0816,0.11704 -0.18125,0.11704 -0.0997,0 -0.18126,-0.0214 -0.18126,-0.0475 z m -57.793794,-1.15832 c -0.06836,-0.26139 7.49e-4,-0.30015 0.251528,-0.14107 0.126657,0.0803 0.12369,0.12689 -0.01545,0.24236 -0.138179,0.11468 -0.184835,0.0947 -0.236078,-0.10129 z m -0.328161,-0.72756 c 0,-0.14183 0.09288,-0.14183 0.422925,0 0.214151,0.092 0.203831,0.10482 -0.09063,0.11234 -0.182764,0.005 -0.332298,-0.0459 -0.332298,-0.11234 z m 82.501965,-4.07304 c 0.15031,-0.0289 0.36781,-0.0278 0.48334,0.002 0.11553,0.0303 -0.008,0.0539 -0.27329,0.0526 -0.26584,-0.001 -0.36036,-0.0261 -0.21005,-0.055 z m -47.70129,-1.53028 c 0,-0.0903 0.11281,-0.30762 0.2507,-0.48291 0.21252,-0.27018 0.22288,-0.32939 0.068,-0.38881 -0.10046,-0.0386 -0.15308,-0.14715 -0.11694,-0.24134 0.0851,-0.22171 0.28153,-0.22176 0.28153,-7e-5 0,0.0941 0.0624,0.19197 0.13859,0.21738 0.0981,0.0327 0.10644,0.1821 0.0285,0.51185 -0.0819,0.3464 -0.1793,0.4762 -0.38026,0.50687 -0.16731,0.0255 -0.27013,-0.0213 -0.27013,-0.12297 z m 5.20661,-0.0694 c -0.24562,-0.1518 -0.0409,-0.3691 0.34765,-0.3691 0.29613,0 0.33427,0.0374 0.27378,0.26876 -0.0388,0.14848 -0.0931,0.2003 -0.12128,0.11579 -0.0345,-0.10344 -0.0974,-0.11445 -0.19433,-0.034 -0.0801,0.0664 -0.21508,0.0746 -0.30582,0.0186 z m -1.03778,-0.12743 c -0.0411,-0.0665 -0.0171,-0.12084 0.0533,-0.12084 0.0704,0 0.12797,0.0544 0.12797,0.12084 0,0.0665 -0.024,0.12083 -0.0533,0.12083 -0.0293,0 -0.0869,-0.0544 -0.12797,-0.12083 z m 0.30209,-0.004 c 0,-0.0644 0.0816,-0.11704 0.18125,-0.11704 0.0997,0 0.18126,0.0214 0.18126,0.0475 0,0.0261 -0.0816,0.0788 -0.18126,0.11705 -0.0997,0.0382 -0.18125,0.0169 -0.18125,-0.0475 z m 18.48786,-0.23787 c 0,-0.0665 0.0544,-0.12084 0.12083,-0.12084 0.0665,0 0.12084,0.0544 0.12084,0.12084 0,0.0665 -0.0544,0.12083 -0.12084,0.12083 -0.0665,0 -0.12083,-0.0544 -0.12083,-0.12083 z m 7.49181,-0.12084 c 0,-0.0665 0.0576,-0.12083 0.12797,-0.12083 0.0704,0 0.0944,0.0544 0.0533,0.12083 -0.0411,0.0665 -0.0987,0.12084 -0.12797,0.12084 -0.0293,0 -0.0533,-0.0544 -0.0533,-0.12084 z m -25.09851,-0.1826 c -0.11467,-0.12475 -0.1082,-0.19011 0.0302,-0.30498 0.13481,-0.11188 0.17615,-0.11245 0.17615,-0.002 0,0.092 0.0933,0.11416 0.25926,0.0615 0.22641,-0.0719 0.23789,-0.0592 0.0906,0.10001 -0.0928,0.10026 -0.20477,0.16047 -0.24894,0.1338 -0.0442,-0.0267 -0.0985,8.5e-4 -0.12083,0.0612 -0.0223,0.0603 -0.10621,0.0382 -0.18648,-0.0491 z m 24.23,0.10006 c 0.0872,-0.0349 0.19145,-0.0306 0.2316,0.01 0.0402,0.0401 -0.0312,0.0687 -0.15859,0.0635 -0.14077,-0.006 -0.1694,-0.0344 -0.073,-0.073 z m -2.15238,-0.27997 c 0,-0.145 0.0806,-0.24167 0.20139,-0.24167 0.11076,0 0.16561,0.0358 0.12188,0.0795 -0.0437,0.0437 -0.0189,0.15248 0.0551,0.24167 0.1054,0.127 0.079,0.16217 -0.12188,0.16217 -0.17591,0 -0.25647,-0.0759 -0.25647,-0.24168 z m 0.90748,0.11887 c 0.0417,-0.0675 0.12652,-0.0915 0.18839,-0.0533 0.1676,0.10359 0.13635,0.1761 -0.0759,0.1761 -0.10362,0 -0.15423,-0.0553 -0.11249,-0.12281 z m 0.42715,-0.0987 c -0.0695,-0.0221 -0.12628,-0.0963 -0.12628,-0.16476 0,-0.0787 0.19609,-0.0951 0.53305,-0.0446 0.32764,0.0491 0.5632,0.0311 0.61131,-0.0467 0.0461,-0.0746 -0.0488,-0.13284 -0.23096,-0.14174 -0.4667,-0.0228 -0.5223,-0.0363 -0.63145,-0.15304 -0.0586,-0.0627 0.10143,-0.0759 0.38265,-0.0315 0.26584,0.0419 0.54961,0.0768 0.63059,0.0775 0.0811,7.3e-4 0.11599,0.0828 0.0777,0.18258 -0.044,0.11478 0.002,0.18126 0.12463,0.18126 0.1068,0 0.19418,0.0434 0.19418,0.0964 0,0.0919 -1.30092,0.12896 -1.56541,0.0446 z m -29.36157,-0.27478 c 0.10264,-0.19178 0.17056,-0.22037 0.27512,-0.1158 0.10457,0.10456 0.0943,0.16697 -0.0414,0.25279 -0.29305,0.18528 -0.37917,0.1348 -0.23371,-0.13699 z m 16.63587,0.17538 c 0.0818,-0.0331 0.24494,-0.0351 0.36251,-0.004 0.11757,0.0306 0.0506,0.0577 -0.14874,0.0602 -0.19938,0.002 -0.29557,-0.0226 -0.21377,-0.0557 z m 6.96756,-0.31345 c 0.0167,-0.34257 0.065,-0.39693 0.37857,-0.42568 l 0.35945,-0.033 -0.27188,0.23358 c -0.14954,0.12847 -0.27188,0.32003 -0.27188,0.42568 0,0.10565 -0.048,0.19209 -0.1067,0.19209 -0.0587,0 -0.0981,-0.17672 -0.0876,-0.39271 z m 10.49073,0.20686 c -0.13209,-0.14976 -0.10684,-0.17665 0.16584,-0.17665 0.27221,0 0.29853,0.0279 0.17123,0.18125 -0.17748,0.21384 -0.144,0.2143 -0.33707,-0.005 z m 1.19722,0.0739 c -0.12139,-0.075 -0.11436,-0.1118 0.0321,-0.168 0.10314,-0.0396 0.21734,-0.0237 0.25378,0.0352 0.0953,0.15415 -0.1026,0.24603 -0.28588,0.13275 z m -12.67184,-0.0921 c 0.1163,-0.0304 0.21146,-0.13113 0.21146,-0.22386 0,-0.10022 -0.0735,-0.14039 -0.18125,-0.099 -0.1117,0.0429 -0.18125,-3.6e-4 -0.18125,-0.11254 0,-0.12852 0.12799,-0.1821 0.435,-0.1821 0.31637,0 0.39876,0.0362 0.30209,0.13292 -0.0731,0.0731 -0.13292,0.2308 -0.13292,0.35042 0,0.16012 -0.0877,0.21381 -0.33229,0.20349 -0.20445,-0.009 -0.25094,-0.0353 -0.12084,-0.0693 z m 15.53494,7.3e-4 c 0.0872,-0.0349 0.19145,-0.0306 0.2316,0.01 0.0401,0.0401 -0.0312,0.0687 -0.1586,0.0635 -0.14077,-0.006 -0.1694,-0.0344 -0.073,-0.073 z m -17.9211,-0.27886 c -0.10336,-0.32565 0.0164,-0.48442 0.3655,-0.48442 0.22725,0 0.27359,0.0464 0.21109,0.21146 -0.0835,0.22051 -0.33419,0.51355 -0.43932,0.51355 -0.0335,0 -0.0953,-0.10826 -0.13727,-0.24059 z m 11.59662,0.11448 c -0.0393,-0.0636 0.0405,-0.11556 0.17738,-0.11556 0.29177,0 0.3212,0.0672 0.0714,0.16305 -0.0976,0.0374 -0.20952,0.0161 -0.2488,-0.0475 z m 1.03036,0.005 c 0,-0.0665 0.0784,-0.12084 0.17412,-0.12084 0.0958,0 0.20773,0.0544 0.24881,0.12084 0.0411,0.0665 -0.0373,0.12083 -0.17412,0.12083 -0.13685,0 -0.24881,-0.0544 -0.24881,-0.12083 z m -16.75128,-0.17819 c -0.0336,-0.0877 -0.0439,-0.25455 -0.0228,-0.37081 0.0615,-0.33869 -0.22702,-0.33872 -0.31203,-3e-5 -0.0727,0.2897 -0.12213,0.30736 -0.86027,0.30736 -0.63482,0 -0.78313,-0.0363 -0.78313,-0.19188 0,-0.15606 0.0879,-0.17702 0.47094,-0.11231 0.28923,0.0489 0.50179,0.0297 0.55089,-0.0498 0.044,-0.0711 0.009,-0.13019 -0.0782,-0.13121 -0.11498,-0.001 -0.10868,-0.0339 0.0231,-0.11933 0.0997,-0.0646 0.4614,-0.1067 0.80381,-0.0935 0.52355,0.0201 0.616,0.0579 0.58139,0.23763 -0.0226,0.11752 0.01,0.24521 0.0723,0.28376 0.18851,0.11651 0.12809,0.26547 -0.13565,0.33445 -0.14632,0.0383 -0.2743,-6.1e-4 -0.31025,-0.0943 z m 2.08178,0.009 c 0.0357,-0.093 0.006,-0.20516 -0.0651,-0.24933 -0.0715,-0.0442 -0.16255,0.005 -0.20242,0.10862 -0.10939,0.28506 -0.77165,0.25248 -0.77165,-0.038 0,-0.36542 0.24911,-0.45484 1.14794,-0.41206 0.46522,0.0221 1.03058,0.0444 1.25635,0.0496 0.23054,0.005 0.34708,0.0485 0.26583,0.0988 -0.0796,0.0492 -0.15353,0.20687 -0.16434,0.35043 -0.0158,0.20932 -0.0923,0.25823 -0.38666,0.24699 -0.20644,-0.008 -0.27384,-0.0383 -0.15406,-0.0696 0.11712,-0.0305 0.18188,-0.10581 0.14391,-0.16724 -0.10943,-0.17707 -0.50533,-0.12974 -0.5818,0.0696 -0.0383,0.0997 -0.17831,0.18126 -0.31123,0.18126 -0.15741,0 -0.21905,-0.0589 -0.17681,-0.16904 z m -0.66408,-0.3501 c -0.1551,-0.15509 -0.31237,-0.0352 -0.19755,0.15056 0.0445,0.072 0.13622,0.0966 0.20388,0.0548 0.0825,-0.051 0.0804,-0.1186 -0.006,-0.20538 z m 7.19927,0.35188 c -0.0396,-0.10313 -0.0237,-0.21733 0.0352,-0.25377 0.15414,-0.0953 0.24602,0.1026 0.13275,0.28588 -0.075,0.12139 -0.1118,0.11437 -0.168,-0.0321 z m 2.09186,0.046 c -0.14664,-0.0906 -0.1419,-0.11967 0.0303,-0.18574 0.30823,-0.11828 0.51608,-0.016 0.31189,0.15345 -0.10461,0.0868 -0.23416,0.099 -0.34216,0.0323 z m -20.80572,-0.0821 c 0.0872,-0.0349 0.19145,-0.0306 0.2316,0.01 0.0401,0.0402 -0.0312,0.0687 -0.1586,0.0635 -0.14077,-0.006 -0.1694,-0.0344 -0.073,-0.073 z m 21.83349,-0.0383 c 0.0411,-0.0665 0.18023,-0.12084 0.30922,-0.12084 0.129,0 0.23454,0.0544 0.23454,0.12084 0,0.0665 -0.13915,0.12083 -0.30922,0.12083 -0.17537,0 -0.27689,-0.0523 -0.23454,-0.12083 z m -27.91304,-0.24168 c -0.0411,-0.0665 0.0133,-0.12083 0.12084,-0.12083 0.10753,0 0.16191,0.0544 0.12083,0.12083 -0.0411,0.0665 -0.0954,0.12084 -0.12083,0.12084 -0.0254,0 -0.0798,-0.0544 -0.12084,-0.12084 z m 3.20215,0 c 0,-0.0665 0.0848,-0.12083 0.18838,-0.12083 0.10361,0 0.15478,0.0544 0.11371,0.12083 -0.0411,0.0665 -0.12585,0.12084 -0.18839,0.12084 -0.0625,0 -0.1137,-0.0544 -0.1137,-0.12084 z m 18.36702,0 c -0.28849,-0.0924 -0.28474,-0.0973 0.0835,-0.10879 0.21207,-0.007 0.41919,0.0423 0.46027,0.10879 0.0859,0.13896 -0.10987,0.13896 -0.54377,0 z m -17.76284,-0.23228 c 0,-0.2127 0.3468,-0.29582 0.64105,-0.15364 l 0.26521,0.12815 -0.26199,0.008 c -0.1441,0.004 -0.34801,0.0412 -0.45314,0.0815 -0.10531,0.0404 -0.19113,0.0116 -0.19113,-0.0642 z m 12.98983,-0.009 c -0.0411,-0.0665 -0.0171,-0.12083 0.0533,-0.12083 0.0704,0 0.12797,0.0544 0.12797,0.12083 0,0.0665 -0.024,0.12084 -0.0533,0.12084 -0.0293,0 -0.0869,-0.0544 -0.12797,-0.12084 z m -9.29919,-0.35415 c -0.0382,-0.0619 -0.0143,-0.14665 0.0533,-0.18839 0.0675,-0.0417 0.12281,0.009 0.12281,0.11249 0,0.21225 -0.0725,0.2435 -0.17609,0.0759 z m -4.19664,-0.33257 c 0.0872,-0.0349 0.19145,-0.0306 0.2316,0.01 0.0402,0.0402 -0.0312,0.0687 -0.1586,0.0635 -0.14077,-0.006 -0.1694,-0.0344 -0.073,-0.073 z m 0.72501,0 c 0.0872,-0.0349 0.19145,-0.0306 0.2316,0.01 0.0402,0.0402 -0.0312,0.0687 -0.15859,0.0635 -0.14077,-0.006 -0.1694,-0.0344 -0.073,-0.073 z m 14.61356,0.003 c 0.0831,-0.0335 0.21902,-0.0335 0.30209,0 0.0831,0.0335 0.0151,0.061 -0.15104,0.061 -0.16615,0 -0.23412,-0.0274 -0.15105,-0.061 z m -2.65083,-0.12335 c 0.0872,-0.0349 0.19145,-0.0306 0.2316,0.01 0.0402,0.0401 -0.0312,0.0687 -0.15859,0.0635 -0.14077,-0.006 -0.1694,-0.0344 -0.073,-0.073 z m -4.72014,-0.23915 c 0.0831,-0.0335 0.21901,-0.0335 0.30209,0 0.0831,0.0335 0.0151,0.061 -0.15105,0.061 -0.16615,0 -0.23412,-0.0274 -0.15104,-0.061 z m 1.08752,0 c 0.0831,-0.0335 0.21901,-0.0335 0.30209,0 0.0831,0.0335 0.0151,0.061 -0.15105,0.061 -0.16614,0 -0.23411,-0.0274 -0.15104,-0.061 z m -3.17194,-0.16164 c -0.0883,-0.14293 0.0299,-0.14293 0.36251,0 0.233,0.10012 0.23217,0.10415 -0.0231,0.11234 -0.14561,0.005 -0.29836,-0.0459 -0.33943,-0.11234 z m 1.11773,0.0408 c 0.0831,-0.0335 0.21902,-0.0335 0.30209,0 0.0831,0.0335 0.0151,0.061 -0.15104,0.061 -0.16615,0 -0.23412,-0.0274 -0.15105,-0.061 z m -3.3834,-0.12083 c 0.0831,-0.0335 0.21902,-0.0335 0.30209,0 0.0831,0.0335 0.0151,0.061 -0.15104,0.061 -0.16615,0 -0.23412,-0.0274 -0.15105,-0.061 z m -2.65083,-0.12335 c 0.0872,-0.0349 0.19145,-0.0306 0.2316,0.01 0.0401,0.0401 -0.0312,0.0687 -0.15859,0.0635 -0.14077,-0.006 -0.1694,-0.0344 -0.073,-0.073 z m 1.6917,0 c 0.0872,-0.0349 0.19145,-0.0306 0.2316,0.01 0.0401,0.0401 -0.0312,0.0687 -0.15859,0.0635 -0.14077,-0.006 -0.1694,-0.0344 -0.073,-0.073 z m -12.60737,-6.87211 c 0.24968,-0.16944 0.47763,-0.28439 0.50657,-0.25546 0.0583,0.0583 -0.7193,0.56352 -0.86729,0.56352 -0.0513,0 0.11105,-0.13863 0.36072,-0.30806 z m 12.90191,-2.67202 c -0.28587,-0.11536 -0.1501,-0.2614 0.31626,-0.34019 0.30513,-0.0515 0.60533,-0.22135 0.865,-0.48927 0.21873,-0.22567 0.44953,-0.37827 0.51289,-0.33911 0.0634,0.0392 0.16266,-0.004 0.22067,-0.0953 0.19135,-0.30211 0.11425,-0.35313 -0.28354,-0.18763 -0.40289,0.16763 -0.69481,0.14688 -0.69481,-0.0494 0,-0.0609 0.10876,-0.11077 0.24168,-0.11077 0.13292,0 0.24167,-0.049 0.24167,-0.10901 0,-0.06 0.1672,-0.16731 0.37157,-0.23855 0.20436,-0.0712 0.33856,-0.18294 0.29822,-0.24821 -0.0403,-0.0653 -0.15318,-0.0881 -0.25074,-0.0506 -0.37832,0.14518 -0.15397,-0.0852 0.24554,-0.25209 0.23261,-0.0972 0.42293,-0.23967 0.42293,-0.31664 0,-0.077 0.0809,-0.1089 0.17969,-0.071 0.11422,0.0438 0.24455,-0.0505 0.35767,-0.25895 l 0.17798,-0.32791 0.005,0.38824 c 0.0113,0.90907 -0.83274,2.3712 -1.43884,2.49242 -0.19222,0.0384 -0.63591,0.20807 -0.98597,0.37695 -0.35006,0.16887 -0.63989,0.30275 -0.64407,0.2975 -0.004,-0.005 -0.0756,-0.037 -0.15864,-0.0705 z m -1.32173,-1.83371 c -0.019,-0.26864 0.0608,-0.36055 0.48334,-0.55699 0.27835,-0.1294 0.60916,-0.31972 0.73514,-0.42293 0.2141,-0.17542 0.22066,-0.17189 0.10054,0.054 -0.12023,0.22612 -0.70456,0.80963 -1.11502,1.11346 -0.14851,0.10993 -0.18537,0.076 -0.204,-0.18755 z"
       style="fill:#000000;stroke-width:0.12083567" />
    <path
       style="fill:none;stroke:#000000;stroke-width:0.26458332px;stroke-linecap:butt;stroke-linejoin:miter;stroke-opacity:1"
       d="m -249.46428,117.08332 c 16.63095,-21.166664 16.63095,-211.666661 199.571423,-198.059516 182.940477,13.607142 163.285717,12.095236 261.559517,-77.107144 98.27382,-89.20238 99.78573,-72.57143 152.70239,33.2619 52.91667,105.833337 84.66667,216.202384 6.04761,204.107145"
       id="path4547"
       inkscape:connector-curvature="0" />
  </g>
</svg>
